<?xml version="1.0" encoding="utf-8"?>
<svg viewBox="782.1336669921875 242.3742218017578 348.2999267578125 346.4000244140625" width="348.2999267578125" height="346.4000244140625" xmlns="http://www.w3.org/2000/svg"><path class="st8" d="M828.8,618.6c-6.6-6-12.8-11.6-16.1-16.9c-9.6-15.7-25.2-16.9-37.8-17.9c-10.4-0.8-19.4-1.5-26.7-8.4&#10;&#9;&#9;c-22.4-21.1-51-26.5-52.2-26.7l-1.8-0.3l-1.8,0.3c-1.2,0.2-29.8,5.6-52.2,26.7c-7.3,6.9-16.3,7.6-26.7,8.4&#10;&#9;&#9;c-12.6,1-28.2,2.2-37.8,17.9c-3.3,5.3-9.5,11-16.1,16.9c-16.7,15.1-39.6,35.8-27,69.1c3,8,5.9,15.2,8.4,21.6&#10;&#9;&#9;c10,25.1,16.6,41.6,17.5,70.6c0.9,30.3,38.9,64.4,50.6,74.2c23.4,19.7,57.5,40.7,83,40.7c0.7,0,1.4,0,2.1,0c0.7,0,1.4,0,2.1,0&#10;&#9;&#9;c0,0,0,0,0,0c25.5,0,59.6-21,83-40.7c11.6-9.8,49.6-43.9,50.6-74.2c0.9-29,7.5-45.6,17.5-70.6c2.6-6.4,5.4-13.6,8.4-21.6&#10;&#9;&#9;C868.3,654.4,845.5,633.7,828.8,618.6z M837.1,680.7c-2.9,7.8-5.6,14.6-8.3,21.2c-10.4,26.1-17.9,44.9-18.9,77.4&#10;&#9;&#9;c-0.4,14.2-17.9,38.1-43.4,59.5c-25.7,21.5-53.9,36-70.2,36c-0.5,0-1,0-1.5,0l-0.6,0l-0.6,0c-0.5,0-1,0-1.5,0&#10;&#9;&#9;c-16.3,0-44.5-14.5-70.2-36c-25.5-21.4-43-45.4-43.4-59.5c-1-32.5-8.5-51.4-18.9-77.4c-2.6-6.6-5.4-13.5-8.3-21.2&#10;&#9;&#9;c-7.2-19.2,3.4-30.7,21.7-47.3c7.7-7,15-13.5,19.7-21.3c4.1-6.6,10.4-7.4,22.3-8.3c11.8-0.9,26.4-2.1,38.9-13.8&#10;&#9;&#9;c15.2-14.3,34.4-19.8,40.3-21.2c5.9,1.4,25,6.9,40.3,21.2c12.4,11.7,27.1,12.8,38.9,13.8c11.9,0.9,18.2,1.7,22.3,8.3&#10;&#9;&#9;c4.8,7.8,12,14.4,19.7,21.3C833.7,650,844.3,661.5,837.1,680.7z" style="fill: rgb(204, 204, 204); opacity: 1;" transform="matrix(1, 0, 0, 1, 262.13360595703136, -306.02569580078125)"/></svg>