<?xml version="1.0" encoding="UTF-8"?>
<svg xmlns="http://www.w3.org/2000/svg" xmlns:xlink="http://www.w3.org/1999/xlink" width="2001" height="2001" viewBox="0 0 2001 2001">
<path fill-rule="evenodd" fill="rgb(100%, 100%, 100%)" fill-opacity="1" d="M 0 0.378906 L 2000 0.378906 L 2000 2000.382812 L 0 2000.382812 L 0 0.378906 "/>
<path fill-rule="evenodd" fill="rgb(0%, 0%, 0%)" fill-opacity="1" d="M 1668.109375 1462.9375 L 1559.070312 1523.40625 C 1558.078125 1546.484375 1549.789062 1567.421875 1536.789062 1583.117188 C 1524.519531 1597.964844 1508.019531 1608.199219 1489.460938 1611.316406 C 1492.570312 1630.464844 1497.128906 1649.472656 1503.128906 1668.117188 C 1509.808594 1688.847656 1518.320312 1709.242188 1528.699219 1729.019531 C 1545.730469 1761.433594 1566.578125 1789.863281 1590.238281 1813.988281 C 1613.730469 1837.917969 1640.019531 1857.675781 1668.109375 1872.945312 C 1696.199219 1857.675781 1722.5 1837.917969 1745.980469 1813.988281 C 1769.640625 1789.863281 1790.5 1761.433594 1807.519531 1729.019531 C 1817.898438 1709.242188 1826.410156 1688.847656 1833.089844 1668.117188 C 1839.089844 1649.472656 1843.648438 1630.464844 1846.769531 1611.316406 C 1828.199219 1608.191406 1811.699219 1597.953125 1799.429688 1583.117188 C 1786.429688 1567.421875 1778.140625 1546.484375 1777.160156 1523.40625 Z M 1547.511719 1511.910156 L 1664.308594 1447.148438 L 1668.109375 1445.035156 L 1671.910156 1447.148438 L 1788.710938 1511.910156 L 1792.769531 1514.15625 L 1792.769531 1518.753906 C 1792.769531 1539.902344 1799.910156 1559.0625 1811.53125 1573.109375 C 1822.949219 1586.917969 1838.699219 1595.777344 1856.121094 1596.597656 L 1864.730469 1596.996094 L 1863.511719 1605.527344 C 1860.289062 1628.167969 1855.128906 1650.738281 1848 1672.90625 C 1841.03125 1694.550781 1832.171875 1715.792969 1821.390625 1736.328125 C 1803.671875 1770.074219 1781.890625 1799.746094 1757.148438 1824.972656 C 1731.488281 1851.121094 1702.628906 1872.515625 1671.761719 1888.777344 L 1668.109375 1890.699219 L 1664.460938 1888.777344 C 1633.589844 1872.515625 1604.730469 1851.121094 1579.070312 1824.972656 C 1554.328125 1799.746094 1532.550781 1770.074219 1514.828125 1736.328125 C 1504.050781 1715.792969 1495.191406 1694.550781 1488.21875 1672.90625 C 1481.089844 1650.738281 1475.941406 1628.167969 1472.710938 1605.527344 L 1471.5 1596.996094 L 1480.109375 1596.597656 C 1497.519531 1595.777344 1513.269531 1586.917969 1524.699219 1573.109375 C 1536.308594 1559.0625 1543.460938 1539.902344 1543.460938 1518.753906 L 1543.460938 1514.15625 L 1547.511719 1511.910156 "/>
<path fill-rule="evenodd" fill="rgb(0%, 0%, 0%)" fill-opacity="1" d="M 1668.109375 1834.328125 C 1690.480469 1820.242188 1710.679688 1803.265625 1728.460938 1784.035156 C 1747.859375 1763.046875 1764.46875 1739.265625 1777.988281 1713.515625 C 1785.121094 1699.945312 1791.339844 1685.878906 1796.640625 1671.453125 C 1801.269531 1658.855469 1805.171875 1646.03125 1808.339844 1633.078125 C 1792.621094 1624.671875 1779.28125 1612.519531 1768.910156 1598.042969 C 1757.671875 1582.363281 1749.839844 1563.847656 1746.140625 1544.347656 L 1668.109375 1501.078125 L 1590.078125 1544.347656 C 1586.378906 1563.847656 1578.558594 1582.363281 1567.308594 1598.042969 C 1556.941406 1612.519531 1543.609375 1624.671875 1527.890625 1633.078125 C 1531.050781 1646.03125 1534.960938 1658.855469 1539.578125 1671.453125 C 1544.878906 1685.878906 1551.109375 1699.945312 1558.230469 1713.515625 C 1571.75 1739.265625 1588.359375 1763.046875 1607.761719 1784.035156 C 1625.539062 1803.265625 1645.738281 1820.242188 1668.109375 1834.328125 Z M 1739.929688 1794.65625 C 1720.078125 1816.125 1697.398438 1834.917969 1672.160156 1850.21875 L 1668.109375 1852.671875 L 1664.058594 1850.21875 C 1638.820312 1834.917969 1616.140625 1816.125 1596.289062 1794.65625 C 1575.859375 1772.558594 1558.449219 1747.65625 1544.359375 1720.820312 C 1536.871094 1706.546875 1530.339844 1691.847656 1524.851562 1676.859375 C 1519.320312 1661.824219 1514.761719 1646.332031 1511.199219 1630.550781 L 1509.808594 1624.359375 L 1515.558594 1621.710938 C 1531.210938 1614.515625 1544.441406 1602.992188 1554.539062 1588.898438 C 1565.148438 1574.105469 1572.328125 1556.5 1575.289062 1538.085938 L 1575.898438 1534.308594 L 1579.21875 1532.46875 L 1664.308594 1485.289062 L 1668.109375 1483.175781 L 1671.910156 1485.289062 L 1757.011719 1532.46875 L 1760.328125 1534.308594 L 1760.941406 1538.085938 C 1763.898438 1556.5 1771.078125 1574.105469 1781.679688 1588.898438 C 1791.78125 1602.992188 1805.011719 1614.515625 1820.660156 1621.710938 L 1826.421875 1624.359375 L 1825.019531 1630.550781 C 1821.460938 1646.332031 1816.898438 1661.824219 1811.378906 1676.859375 C 1805.878906 1691.847656 1799.359375 1706.546875 1791.859375 1720.820312 C 1777.769531 1747.65625 1760.359375 1772.558594 1739.929688 1794.65625 "/>
<path fill-rule="evenodd" fill="rgb(0%, 0%, 0%)" fill-opacity="1" d="M 330.507812 1888.375 C 286.886719 1861.730469 243.914062 1829.550781 211.6875 1785.835938 C 179.230469 1741.808594 157.820312 1686.347656 157.820312 1613.539062 L 157.824219 1530.160156 C 157.824219 1525.824219 161.34375 1522.304688 165.679688 1522.304688 C 194.203125 1522.304688 219.90625 1514.324219 238.367188 1501.433594 C 256.011719 1489.105469 266.945312 1472.285156 266.945312 1453.949219 C 266.945312 1449.613281 270.464844 1446.097656 274.804688 1446.097656 L 275.007812 1446.09375 L 394.761719 1446.09375 C 399.097656 1446.09375 402.617188 1449.613281 402.617188 1453.949219 C 402.617188 1472.285156 413.550781 1489.105469 431.195312 1501.433594 C 449.65625 1514.324219 475.359375 1522.304688 503.882812 1522.304688 C 508.222656 1522.304688 511.738281 1525.824219 511.738281 1530.160156 L 511.742188 1530.363281 L 511.742188 1613.539062 C 511.742188 1686.347656 490.332031 1741.808594 457.871094 1785.835938 C 425.601562 1829.613281 382.546875 1861.824219 338.867188 1888.492188 C 336.210938 1890.117188 332.960938 1889.960938 330.507812 1888.375 Z M 224.339844 1776.5625 C 254.136719 1816.980469 293.96875 1847.3125 334.78125 1872.59375 C 375.585938 1847.3125 415.429688 1816.980469 445.226562 1776.5625 C 475.839844 1735.046875 496.027344 1682.59375 496.027344 1613.539062 L 496.027344 1537.828125 C 467.394531 1536.46875 441.511719 1527.710938 422.238281 1514.253906 C 402.859375 1500.710938 390.03125 1482.371094 387.40625 1461.808594 L 282.15625 1461.808594 C 279.53125 1482.371094 266.703125 1500.710938 247.324219 1514.253906 C 228.054688 1527.710938 202.167969 1536.46875 173.535156 1537.828125 L 173.535156 1613.539062 C 173.535156 1682.59375 193.722656 1735.046875 224.339844 1776.5625 "/>
<path fill-rule="evenodd" fill="rgb(0%, 0%, 0%)" fill-opacity="1" d="M 334.78125 1832.945312 C 373.714844 1806.832031 405.371094 1778.199219 427.394531 1743.679688 C 450.070312 1708.125 462.671875 1666.019531 462.671875 1613.539062 L 462.671875 1566.65625 C 440.628906 1561.675781 418.878906 1552.714844 400.714844 1539.839844 C 384.265625 1528.171875 370.699219 1513.269531 362.402344 1495.164062 L 307.160156 1495.160156 C 298.863281 1513.269531 285.296875 1528.171875 268.847656 1539.839844 C 250.6875 1552.714844 228.925781 1561.675781 206.890625 1566.65625 L 206.890625 1613.539062 C 206.890625 1666.019531 219.480469 1708.117188 242.171875 1743.679688 C 264.191406 1778.199219 295.847656 1806.832031 334.78125 1832.945312 Z M 440.59375 1752.085938 C 416.480469 1789.886719 381.820312 1820.777344 339.242188 1848.757812 C 336.699219 1850.527344 333.226562 1850.675781 330.484375 1848.867188 C 287.835938 1820.855469 253.113281 1789.933594 228.972656 1752.085938 C 204.675781 1713.992188 191.175781 1669.152344 191.175781 1613.539062 L 191.179688 1560.285156 L 191.195312 1560.285156 C 191.195312 1556.59375 193.800781 1553.304688 197.558594 1552.589844 C 219.695312 1548.363281 241.769531 1539.824219 259.765625 1527.066406 C 275.234375 1516.097656 287.71875 1501.980469 294.535156 1484.816406 C 295.582031 1481.699219 298.519531 1479.453125 301.984375 1479.453125 L 367.578125 1479.449219 L 367.578125 1479.46875 C 370.714844 1479.46875 373.675781 1481.359375 374.886719 1484.453125 C 381.671875 1501.785156 394.21875 1516.019531 409.796875 1527.066406 C 427.667969 1539.726562 449.554688 1548.234375 471.527344 1552.492188 C 475.382812 1552.988281 478.382812 1556.289062 478.382812 1560.285156 L 478.386719 1613.539062 C 478.386719 1669.152344 464.878906 1714 440.59375 1752.085938 "/>
<path fill-rule="evenodd" fill="rgb(0%, 0%, 0%)" fill-opacity="1" d="M 999.449219 1889.246094 C 939.988281 1873.417969 891.808594 1854.476562 859.300781 1829.464844 C 825.492188 1803.453125 808.4375 1771.089844 812.820312 1729.28125 C 815.183594 1706.679688 821.5 1687.410156 827.539062 1668.957031 C 840.605469 1629.050781 852.371094 1593.09375 814.140625 1537.050781 L 805.765625 1524.769531 L 820.613281 1524.769531 C 895.148438 1524.769531 911.992188 1502.53125 927.121094 1482.546875 C 941.632812 1463.378906 954.828125 1445.964844 1001.441406 1445.964844 C 1048.050781 1445.964844 1061.261719 1463.378906 1075.769531 1482.546875 C 1090.898438 1502.53125 1107.738281 1524.773438 1182.28125 1524.773438 L 1197.128906 1524.769531 L 1188.75 1537.050781 C 1150.519531 1593.09375 1162.28125 1629.050781 1175.351562 1668.957031 C 1181.390625 1687.410156 1187.699219 1706.679688 1190.070312 1729.28125 C 1194.441406 1771.089844 1177.390625 1803.464844 1143.589844 1829.464844 C 1111.070312 1854.476562 1062.910156 1873.417969 1003.441406 1889.246094 L 1001.441406 1889.773438 Z M 868.871094 1817.070312 C 899.171875 1840.378906 944.796875 1858.335938 1001.441406 1873.550781 C 1058.089844 1858.335938 1103.710938 1840.378906 1134.019531 1817.070312 C 1163.378906 1794.476562 1178.21875 1766.613281 1174.480469 1730.882812 C 1172.300781 1710.027344 1166.230469 1691.527344 1160.441406 1673.8125 C 1147.050781 1632.929688 1134.910156 1595.835938 1168.121094 1540.214844 C 1097.640625 1537.425781 1079.570312 1513.578125 1063.25 1492.003906 C 1051.210938 1476.113281 1040.28125 1461.675781 1001.441406 1461.675781 C 962.613281 1461.675781 951.679688 1476.113281 939.644531 1492.003906 C 923.320312 1513.578125 905.242188 1537.425781 834.769531 1540.214844 C 867.976562 1595.835938 855.839844 1632.929688 842.453125 1673.8125 C 836.652344 1691.523438 830.589844 1710.027344 828.40625 1730.882812 C 824.660156 1766.609375 839.503906 1794.476562 868.871094 1817.070312 "/>
<path fill-rule="evenodd" fill="rgb(0%, 0%, 0%)" fill-opacity="1" d="M 883.222656 1567.625 C 886.238281 1578.066406 888.1875 1588.71875 888.917969 1599.691406 C 889.84375 1613.628906 888.847656 1628.128906 885.730469 1643.386719 C 882.933594 1657.03125 878.703125 1670.023438 874.488281 1682.964844 C 868.941406 1699.988281 863.394531 1717.011719 861.578125 1734.363281 C 858.390625 1764.789062 879.867188 1787.210938 908.394531 1803.769531 C 937.773438 1820.816406 974.734375 1831.765625 1001.441406 1839.011719 C 1028.148438 1831.765625 1065.121094 1820.816406 1094.5 1803.769531 C 1123.019531 1787.210938 1144.488281 1764.789062 1141.308594 1734.363281 C 1139.488281 1717.007812 1133.949219 1699.988281 1128.398438 1682.964844 C 1124.179688 1670.023438 1119.960938 1657.03125 1117.160156 1643.386719 C 1114.03125 1628.121094 1113.039062 1613.628906 1113.96875 1599.691406 C 1114.699219 1588.71875 1116.628906 1578.066406 1119.660156 1567.625 C 1112.679688 1565.988281 1105.828125 1563.972656 1099.191406 1561.488281 C 1089.628906 1557.914062 1080.488281 1553.375 1072.058594 1547.6875 C 1056.808594 1537.394531 1049.179688 1527.671875 1040.359375 1516.421875 C 1037.308594 1512.53125 1034.089844 1508.425781 1030.199219 1503.921875 C 1026.679688 1499.84375 1022.78125 1497.644531 1018.480469 1496.492188 C 1013.640625 1495.195312 1007.878906 1495.03125 1001.441406 1495.03125 C 995.011719 1495.03125 989.246094 1495.195312 984.40625 1496.492188 C 980.109375 1497.644531 976.210938 1499.839844 972.683594 1503.921875 C 968.804688 1508.421875 965.574219 1512.53125 962.527344 1516.421875 C 953.703125 1527.671875 946.078125 1537.394531 930.828125 1547.6875 C 922.390625 1553.382812 913.253906 1557.914062 903.695312 1561.488281 C 897.058594 1563.980469 890.199219 1565.992188 883.222656 1567.625 Z M 873.269531 1600.730469 C 872.429688 1588.167969 869.84375 1576.09375 865.742188 1564.324219 L 862.75 1555.722656 L 871.722656 1554.050781 C 880.78125 1552.359375 889.703125 1550.003906 898.226562 1546.816406 C 906.578125 1543.695312 914.589844 1539.703125 922.046875 1534.679688 C 935.371094 1525.683594 942.25 1516.925781 950.191406 1506.789062 C 953.445312 1502.640625 956.886719 1498.257812 960.839844 1493.679688 C 966.699219 1486.898438 973.179688 1483.261719 980.351562 1481.328125 C 986.996094 1479.546875 993.902344 1479.316406 1001.441406 1479.316406 C 1008.988281 1479.316406 1015.890625 1479.546875 1022.53125 1481.328125 C 1029.710938 1483.261719 1036.191406 1486.898438 1042.050781 1493.679688 C 1046 1498.257812 1049.441406 1502.640625 1052.699219 1506.789062 C 1060.640625 1516.921875 1067.519531 1525.683594 1080.839844 1534.679688 C 1088.28125 1539.703125 1096.320312 1543.695312 1104.648438 1546.816406 C 1113.191406 1550.003906 1122.101562 1552.359375 1131.171875 1554.050781 L 1140.148438 1555.722656 L 1137.140625 1564.324219 C 1133.039062 1576.101562 1130.460938 1588.175781 1129.621094 1600.730469 C 1128.78125 1613.320312 1129.679688 1626.441406 1132.511719 1640.257812 C 1135.089844 1652.890625 1139.210938 1665.523438 1143.308594 1678.109375 C 1149.101562 1695.894531 1154.898438 1713.671875 1156.890625 1732.761719 C 1160.890625 1770.878906 1135.789062 1797.914062 1102.351562 1817.328125 C 1070.5 1835.796875 1031.148438 1847.257812 1003.46875 1854.722656 L 1001.449219 1855.261719 L 999.417969 1854.722656 C 971.726562 1847.257812 932.382812 1835.796875 900.535156 1817.328125 C 867.09375 1797.914062 841.996094 1770.886719 845.992188 1732.761719 C 847.988281 1713.671875 853.789062 1695.894531 859.578125 1678.109375 C 863.679688 1665.523438 867.792969 1652.890625 870.378906 1640.257812 C 873.207031 1626.441406 874.109375 1613.320312 873.269531 1600.730469 "/>
<path fill-rule="evenodd" fill="rgb(0%, 0%, 0%)" fill-opacity="1" d="M 331.222656 1222.097656 C 319.675781 1216.199219 306.902344 1210.117188 294.519531 1204.226562 C 219.835938 1168.679688 157.820312 1139.164062 157.820312 1040.402344 L 157.824219 862.769531 C 157.824219 859.339844 160.015625 856.421875 163.078125 855.351562 L 331.59375 780.128906 C 333.703125 779.191406 336.007812 779.261719 337.972656 780.128906 L 507.074219 855.621094 C 509.980469 856.910156 511.710938 859.769531 511.71875 862.769531 L 511.738281 862.769531 L 511.738281 1040.402344 C 511.738281 1139.164062 449.726562 1168.679688 375.042969 1204.226562 C 362.660156 1210.117188 349.886719 1216.199219 338.339844 1222.097656 C 336.023438 1223.285156 333.382812 1223.1875 331.222656 1222.089844 Z M 301.277344 1190.054688 C 311.898438 1195.113281 322.792969 1200.296875 334.78125 1206.355469 C 346.769531 1200.296875 357.664062 1195.113281 368.285156 1190.054688 C 438.078125 1156.839844 496.027344 1129.25 496.027344 1040.402344 L 496.027344 867.828125 L 334.78125 795.851562 L 173.535156 867.828125 L 173.535156 1040.402344 C 173.535156 1129.25 231.484375 1156.839844 301.277344 1190.054688 "/>
<path fill-rule="evenodd" fill="rgb(0%, 0%, 0%)" fill-opacity="1" d="M 334.78125 1169.328125 L 345.230469 1164.445312 C 380.09375 1148.144531 421.683594 1128.691406 441.917969 1105.453125 C 449.894531 1096.296875 455.070312 1086.253906 458.234375 1075.5625 C 461.464844 1064.636719 462.671875 1052.820312 462.671875 1040.402344 L 462.671875 889.46875 L 334.78125 832.378906 L 206.890625 889.46875 L 206.890625 1040.402344 C 206.890625 1052.820312 208.101562 1064.636719 211.328125 1075.5625 C 214.484375 1086.253906 219.664062 1096.296875 227.644531 1105.453125 C 247.882812 1128.691406 289.46875 1148.144531 324.335938 1164.445312 Z M 351.859375 1178.613281 C 348.78125 1180.054688 345.738281 1181.476562 338.160156 1185.082031 C 336.09375 1186.0625 333.628906 1186.140625 331.402344 1185.082031 L 317.703125 1178.613281 C 281.417969 1161.648438 238.125 1141.402344 215.796875 1115.761719 C 206.269531 1104.824219 200.085938 1092.816406 196.292969 1079.980469 C 192.570312 1067.378906 191.179688 1054.132812 191.179688 1040.402344 L 191.179688 884.398438 L 191.203125 884.398438 C 191.210938 881.410156 192.9375 878.550781 195.84375 877.25 L 331.59375 816.660156 C 333.554688 815.789062 335.859375 815.71875 337.972656 816.660156 L 473.128906 876.988281 C 476.191406 878.050781 478.386719 880.980469 478.386719 884.398438 L 478.386719 1040.402344 C 478.386719 1054.132812 476.992188 1067.378906 473.269531 1079.980469 C 469.476562 1092.800781 463.285156 1104.820312 453.765625 1115.761719 C 431.4375 1141.402344 388.144531 1161.648438 351.859375 1178.613281 "/>
<path fill-rule="evenodd" fill="rgb(0%, 0%, 0%)" fill-opacity="1" d="M 1668.121094 779.300781 C 1722.078125 779.300781 1739.019531 798.941406 1756.539062 819.300781 C 1772.929688 838.328125 1789.949219 858.109375 1848.949219 858.109375 L 1856.800781 858.101562 L 1856.800781 999.320312 C 1856.800781 1047.429688 1838.539062 1097.855469 1803.628906 1139.492188 C 1772.230469 1176.9375 1727.320312 1207.339844 1670.109375 1222.582031 L 1668.121094 1223.105469 L 1666.121094 1222.582031 C 1608.898438 1207.339844 1563.988281 1176.9375 1532.589844 1139.492188 C 1497.679688 1097.855469 1479.429688 1047.429688 1479.429688 999.320312 L 1479.429688 858.101562 L 1487.28125 858.101562 C 1546.289062 858.101562 1563.300781 838.328125 1579.691406 819.300781 C 1597.199219 798.949219 1614.128906 779.300781 1668.121094 779.300781 Z M 1744.628906 829.539062 C 1729.511719 811.980469 1714.898438 795.011719 1668.109375 795.011719 C 1621.328125 795.011719 1606.71875 811.980469 1591.601562 829.539062 C 1573.660156 850.371094 1555.058594 871.96875 1495.140625 873.699219 L 1495.140625 999.320312 C 1495.140625 1043.871094 1512.140625 1090.660156 1544.628906 1129.421875 C 1573.71875 1164.109375 1615.230469 1192.375 1668.109375 1206.878906 C 1721 1192.375 1762.511719 1164.109375 1791.601562 1129.421875 C 1824.089844 1090.660156 1841.089844 1043.871094 1841.089844 999.320312 L 1841.089844 873.699219 C 1781.171875 871.96875 1762.558594 850.371094 1744.628906 829.539062 "/>
<path fill-rule="evenodd" fill="rgb(0%, 0%, 0%)" fill-opacity="1" d="M 1528.488281 904.359375 L 1528.488281 999.320312 C 1528.488281 1039.15625 1543.300781 1075.058594 1567.078125 1104.234375 C 1592.730469 1135.71875 1628.820312 1159.476562 1668.109375 1172.09375 C 1707.410156 1159.476562 1743.5 1135.71875 1769.148438 1104.234375 C 1792.929688 1075.058594 1807.730469 1039.15625 1807.730469 999.320312 L 1807.738281 904.359375 C 1789.96875 901.488281 1775.191406 896.21875 1761.21875 887.710938 C 1745.75 878.300781 1731.511719 865.03125 1715.398438 846.738281 C 1708.308594 838.691406 1702.140625 834.070312 1695.25 831.578125 C 1688.128906 828.988281 1679.589844 828.359375 1668.109375 828.359375 C 1656.648438 828.359375 1648.101562 828.988281 1640.980469 831.578125 C 1634.089844 834.070312 1627.921875 838.691406 1620.828125 846.738281 C 1604.710938 865.03125 1590.480469 878.300781 1575.011719 887.710938 C 1561.039062 896.21875 1546.261719 901.488281 1528.488281 904.359375 Z M 1512.78125 999.320312 L 1512.78125 890.601562 L 1519.691406 889.761719 C 1538.351562 887.460938 1553.140625 882.660156 1566.839844 874.328125 C 1580.78125 865.839844 1593.929688 853.519531 1609.050781 836.371094 C 1617.96875 826.238281 1626.109375 820.300781 1635.640625 816.839844 C 1644.921875 813.46875 1654.96875 812.648438 1668.109375 812.648438 C 1681.261719 812.648438 1691.308594 813.46875 1700.589844 816.839844 C 1710.121094 820.289062 1718.25 826.230469 1727.179688 836.371094 C 1742.289062 853.519531 1755.429688 865.839844 1769.390625 874.328125 C 1783.089844 882.660156 1797.878906 887.460938 1816.539062 889.761719 L 1823.449219 890.601562 L 1823.449219 999.320312 C 1823.449219 1042.964844 1807.269531 1082.246094 1781.289062 1114.117188 C 1753.179688 1148.625 1713.46875 1174.480469 1670.421875 1187.789062 L 1668.121094 1188.492188 L 1665.808594 1187.789062 C 1622.75 1174.480469 1583.050781 1148.628906 1554.941406 1114.117188 C 1528.960938 1082.246094 1512.78125 1042.96875 1512.78125 999.320312 "/>
<path fill-rule="evenodd" fill="rgb(0%, 0%, 0%)" fill-opacity="1" d="M 909.550781 779.289062 L 1101.199219 779.289062 L 1101.199219 787.148438 C 1101.199219 806.578125 1110.140625 824.230469 1124.578125 837.019531 C 1139.269531 850.03125 1159.679688 858.101562 1182.28125 858.101562 L 1190.140625 858.101562 L 1190.140625 999.320312 C 1190.140625 1047.425781 1171.878906 1097.851562 1136.96875 1139.488281 C 1105.570312 1176.933594 1060.660156 1207.335938 1003.441406 1222.578125 L 1001.449219 1223.109375 L 999.453125 1222.574219 C 942.230469 1207.335938 897.328125 1176.9375 865.929688 1139.488281 C 831.019531 1097.851562 812.761719 1047.425781 812.761719 999.320312 L 812.761719 858.101562 L 820.617188 858.101562 C 843.21875 858.101562 863.625 850.03125 878.316406 837.019531 C 892.757812 824.230469 901.695312 806.578125 901.695312 787.148438 L 901.695312 779.289062 Z M 1001.449219 795 L 917.015625 795 C 914.910156 815.960938 904.476562 834.75 888.6875 848.738281 C 872.960938 862.671875 851.867188 871.839844 828.472656 873.53125 L 828.472656 999.320312 C 828.472656 1043.867188 845.472656 1090.65625 877.964844 1129.414062 C 907.054688 1164.105469 948.5625 1192.371094 1001.449219 1206.875 C 1054.328125 1192.371094 1095.839844 1164.105469 1124.929688 1129.414062 C 1157.421875 1090.65625 1174.421875 1043.867188 1174.421875 999.320312 L 1174.429688 873.53125 C 1151.03125 871.839844 1129.941406 862.671875 1114.210938 848.738281 C 1098.421875 834.75 1087.988281 815.960938 1085.878906 795 L 1001.449219 795 "/>
<path fill-rule="evenodd" fill="rgb(0%, 0%, 0%)" fill-opacity="1" d="M 1001.449219 1172.078125 C 1040.738281 1159.453125 1076.828125 1135.714844 1102.480469 1104.230469 C 1126.261719 1075.054688 1141.070312 1039.152344 1141.070312 999.320312 L 1141.070312 900.890625 C 1122.53125 895.140625 1105.429688 885.601562 1091.328125 873.019531 C 1077.628906 860.800781 1066.679688 845.691406 1059.890625 828.359375 L 943.011719 828.359375 C 936.214844 845.691406 925.261719 860.800781 911.5625 873.019531 C 897.464844 885.601562 880.359375 895.140625 861.828125 900.890625 L 861.828125 999.320312 C 861.828125 1039.152344 876.636719 1075.054688 900.414062 1104.230469 C 926.0625 1135.714844 962.152344 1159.457031 1001.449219 1172.078125 Z M 1114.628906 1114.113281 C 1086.511719 1148.632812 1046.808594 1174.476562 1003.75 1187.785156 L 1001.449219 1188.5 L 999.148438 1187.785156 C 956.089844 1174.476562 916.386719 1148.632812 888.269531 1114.113281 C 862.289062 1082.242188 846.117188 1042.964844 846.117188 999.320312 L 846.117188 888.949219 L 851.976562 887.398438 C 870.375 882.570312 887.375 873.570312 901.128906 861.300781 C 914.273438 849.578125 924.476562 834.890625 930.109375 818.019531 L 931.910156 812.648438 L 1071 812.648438 L 1072.789062 818.019531 C 1078.421875 834.890625 1088.621094 849.589844 1101.769531 861.300781 C 1115.519531 873.570312 1132.519531 882.570312 1150.921875 887.398438 L 1156.78125 888.949219 L 1156.78125 999.320312 C 1156.78125 1042.960938 1140.601562 1082.242188 1114.628906 1114.113281 "/>
<path fill-rule="evenodd" fill="rgb(0%, 0%, 0%)" fill-opacity="1" d="M 997.765625 557.039062 C 994.128906 555.109375 990.214844 552.941406 986.003906 550.488281 C 982.265625 548.320312 978.375 545.960938 974.367188 543.410156 L 974.355469 543.429688 C 916.683594 506.820312 872.09375 454.871094 842.394531 395 C 811.761719 333.230469 796.992188 262.949219 800.082031 192.398438 L 800.460938 183.890625 L 808.886719 184.96875 C 839.777344 188.960938 877.695312 187.121094 914.429688 173.75 C 943.527344 163.160156 971.910156 145.269531 995.429688 117.230469 L 1001.449219 110.070312 L 1007.46875 117.230469 C 1030.988281 145.269531 1059.371094 163.160156 1088.46875 173.75 C 1125.199219 187.121094 1163.121094 188.960938 1194.011719 184.96875 L 1202.449219 183.890625 L 1202.808594 192.398438 C 1205.898438 262.949219 1191.128906 333.230469 1160.5 395 C 1130.800781 454.871094 1086.210938 506.820312 1028.539062 543.429688 C 1024.910156 545.730469 1021 548.109375 1016.890625 550.488281 C 1012.671875 552.941406 1008.769531 555.109375 1005.128906 557.039062 L 1001.449219 559 Z M 993.859375 536.929688 C 996.222656 538.300781 998.761719 539.71875 1001.449219 541.191406 C 1004.140625 539.71875 1006.671875 538.300781 1009.039062 536.929688 C 1012.53125 534.910156 1016.238281 532.648438 1020.140625 530.171875 C 1075.320312 495.140625 1118 445.410156 1146.441406 388.078125 C 1174.710938 331.058594 1188.929688 266.519531 1187.441406 201.441406 C 1156.109375 204.339844 1119.101562 201.578125 1083.121094 188.488281 C 1054.070312 177.898438 1025.660156 160.609375 1001.449219 134.160156 C 977.238281 160.601562 948.828125 177.898438 919.773438 188.488281 C 883.800781 201.578125 846.785156 204.339844 815.453125 201.441406 C 813.964844 266.519531 828.179688 331.058594 856.453125 388.078125 C 884.890625 445.410156 927.570312 495.140625 982.757812 530.171875 L 982.757812 530.199219 C 986.261719 532.429688 989.984375 534.691406 993.859375 536.929688 "/>
<path fill-rule="evenodd" fill="rgb(0%, 0%, 0%)" fill-opacity="1" d="M 1008.070312 516.898438 L 1005.558594 518.449219 L 1001.449219 520.980469 L 997.339844 518.449219 L 994.824219 516.898438 L 994.761719 516.839844 L 992.265625 515.269531 L 992.234375 515.269531 C 944.558594 485 906.816406 442.929688 880.085938 394.578125 C 852.132812 344.03125 836.195312 286.53125 833.460938 228.441406 L 833.085938 220.320312 L 841.222656 220.238281 C 870.046875 219.980469 898.570312 214.941406 925.277344 205.191406 C 951.109375 195.769531 975.242188 181.929688 996.324219 163.710938 L 1001.449219 159.289062 L 1006.570312 163.710938 C 1027.648438 181.929688 1051.789062 195.769531 1077.621094 205.191406 C 1104.328125 214.941406 1132.851562 219.980469 1161.671875 220.25 L 1169.820312 220.320312 L 1169.441406 228.441406 C 1166.699219 286.53125 1150.761719 344.03125 1122.808594 394.578125 C 1096.078125 442.929688 1058.339844 485 1010.660156 515.269531 L 1010.628906 515.269531 L 1008.128906 516.839844 Z M 1001.449219 502.53125 L 1002.269531 502.019531 L 1002.261719 502.011719 C 1047.640625 473.191406 1083.589844 433.121094 1109.058594 387.039062 C 1134.601562 340.859375 1149.679688 288.671875 1153.320312 235.699219 C 1125.480469 234.609375 1098.070312 229.328125 1072.28125 219.929688 C 1046.761719 210.621094 1022.78125 197.25 1001.449219 179.851562 C 980.121094 197.25 956.136719 210.621094 930.621094 219.929688 C 904.828125 229.328125 877.414062 234.609375 849.570312 235.699219 C 853.21875 288.671875 868.300781 340.859375 893.832031 387.039062 C 919.308594 433.121094 955.257812 473.191406 1000.640625 502.011719 L 1000.628906 502.019531 L 1001.449219 502.53125 "/>
<path fill-rule="evenodd" fill="rgb(0%, 0%, 0%)" fill-opacity="1" d="M 517.867188 188.980469 C 491.691406 169.730469 462.855469 154.460938 432.105469 144.019531 C 401.382812 133.578125 368.6875 127.960938 334.78125 127.960938 C 300.875 127.960938 268.179688 133.589844 237.457031 144.019531 C 206.710938 154.460938 177.871094 169.730469 151.695312 188.980469 C 149.574219 223.820312 151.984375 259.191406 159.175781 293.929688 C 166.355469 328.589844 178.34375 362.699219 195.371094 395.140625 C 212.394531 427.550781 233.253906 455.980469 256.914062 480.101562 C 280.394531 504.03125 306.6875 523.789062 334.78125 539.058594 C 362.871094 523.789062 389.164062 504.03125 412.648438 480.101562 C 436.308594 455.980469 457.164062 427.550781 474.1875 395.140625 C 491.222656 362.699219 503.210938 328.589844 510.390625 293.929688 C 517.578125 259.191406 519.988281 223.820312 517.867188 188.980469 Z M 437.136719 129.171875 C 470.585938 140.519531 501.882812 157.328125 530.152344 178.601562 L 533.035156 180.769531 L 533.28125 184.339844 C 535.882812 221.679688 533.46875 259.691406 525.738281 297.058594 C 518.253906 333.179688 505.777344 368.71875 488.0625 402.441406 C 470.339844 436.191406 448.5625 465.859375 423.816406 491.089844 C 398.160156 517.238281 369.300781 538.628906 338.433594 554.890625 L 334.78125 556.820312 L 331.128906 554.890625 C 300.261719 538.628906 271.402344 517.238281 245.742188 491.089844 C 220.996094 465.859375 199.222656 436.191406 181.5 402.441406 C 163.785156 368.71875 151.308594 333.179688 143.824219 297.058594 C 136.09375 259.691406 133.683594 221.679688 136.28125 184.339844 L 136.53125 180.769531 L 139.410156 178.601562 C 167.683594 157.320312 198.980469 140.519531 232.429688 129.171875 C 264.800781 118.179688 299.1875 112.25 334.78125 112.25 C 370.375 112.25 404.761719 118.179688 437.136719 129.171875 "/>
<path fill-rule="evenodd" fill="rgb(0%, 0%, 0%)" fill-opacity="1" d="M 334.78125 500.441406 C 357.152344 486.359375 377.351562 469.378906 395.128906 450.148438 C 414.53125 429.160156 431.140625 405.378906 444.660156 379.628906 C 458.824219 352.648438 469.335938 323.921875 476.097656 294.351562 C 482.652344 265.710938 485.699219 236.28125 485.203125 206.890625 C 463.136719 192.398438 439.460938 181.109375 414.699219 173.421875 C 389.144531 165.488281 362.316406 161.320312 334.78125 161.320312 C 307.246094 161.320312 280.421875 165.488281 254.863281 173.421875 C 230.101562 181.109375 206.425781 192.398438 184.359375 206.890625 C 183.863281 236.28125 186.914062 265.710938 193.464844 294.351562 C 200.226562 323.921875 210.738281 352.648438 224.902344 379.628906 C 238.421875 405.378906 255.027344 429.160156 274.433594 450.148438 C 292.210938 469.378906 312.40625 486.359375 334.78125 500.441406 Z M 406.597656 460.769531 C 386.746094 482.238281 364.066406 501.03125 338.835938 516.328125 L 334.78125 518.789062 L 330.726562 516.328125 C 305.496094 501.03125 282.816406 482.238281 262.964844 460.769531 C 242.53125 438.671875 225.121094 413.769531 211.027344 386.929688 C 196.222656 358.730469 185.230469 328.71875 178.175781 297.851562 C 171.042969 266.671875 167.894531 234.53125 168.796875 202.398438 L 168.914062 198.359375 L 172.230469 196.109375 C 196.449219 179.730469 222.671875 167.019531 250.261719 158.449219 C 277.378906 150.03125 305.753906 145.601562 334.78125 145.601562 C 363.808594 145.601562 392.183594 150.039062 419.300781 158.449219 C 446.890625 167.019531 473.113281 179.730469 497.332031 196.109375 L 500.65625 198.359375 L 500.765625 202.398438 C 501.667969 234.53125 498.519531 266.671875 491.386719 297.851562 C 484.332031 328.71875 473.339844 358.730469 458.53125 386.929688 C 444.441406 413.769531 427.03125 438.671875 406.597656 460.769531 "/>
<path fill-rule="evenodd" fill="rgb(0%, 0%, 0%)" fill-opacity="1" d="M 1663.839844 555.03125 C 1620.230469 528.378906 1577.25 496.210938 1545.019531 452.488281 C 1512.558594 408.480469 1491.160156 353.019531 1491.160156 280.199219 L 1491.160156 154.519531 C 1491.160156 150.191406 1494.679688 146.671875 1499.011719 146.671875 C 1582.628906 146.671875 1608.261719 136.308594 1652.75 118.339844 L 1665.199219 113.339844 C 1667.148438 112.558594 1669.21875 112.609375 1671.03125 113.339844 L 1683.480469 118.339844 C 1727.96875 136.308594 1753.609375 146.671875 1837.21875 146.671875 C 1841.550781 146.671875 1845.070312 150.191406 1845.070312 154.519531 L 1845.070312 280.199219 C 1845.070312 353.011719 1823.671875 408.480469 1791.210938 452.488281 C 1758.941406 496.269531 1715.871094 528.46875 1672.199219 555.148438 C 1669.539062 556.78125 1666.289062 556.621094 1663.839844 555.03125 Z M 1557.671875 443.21875 C 1587.46875 483.640625 1627.308594 513.960938 1668.109375 539.25 C 1708.921875 513.96875 1748.769531 483.628906 1778.558594 443.21875 C 1809.171875 401.710938 1829.359375 349.261719 1829.359375 280.199219 L 1829.359375 162.351562 C 1748.980469 161.699219 1722.539062 151.011719 1677.648438 132.890625 L 1668.121094 129.050781 L 1658.578125 132.890625 C 1613.691406 151.011719 1587.25 161.699219 1506.871094 162.351562 L 1506.871094 280.199219 C 1506.871094 349.261719 1527.058594 401.710938 1557.671875 443.21875 "/>
<path fill-rule="evenodd" fill="rgb(0%, 0%, 0%)" fill-opacity="1" d="M 1668.121094 499.601562 C 1707.050781 473.488281 1738.710938 444.851562 1760.730469 410.339844 C 1783.410156 374.789062 1796.011719 332.679688 1796.011719 280.199219 L 1796.011719 194.75 C 1772.480469 193.5 1753.191406 190.878906 1733.988281 186.359375 C 1713.628906 181.578125 1693.328125 174.628906 1668.109375 164.871094 C 1642.890625 174.640625 1622.589844 181.589844 1602.238281 186.359375 C 1583.039062 190.871094 1563.75 193.488281 1540.21875 194.75 L 1540.21875 280.199219 C 1540.21875 332.679688 1552.820312 374.789062 1575.5 410.339844 C 1597.519531 444.859375 1629.171875 473.488281 1668.121094 499.601562 Z M 1773.929688 418.738281 C 1749.808594 456.550781 1715.148438 487.429688 1672.578125 515.421875 C 1670.03125 517.179688 1666.558594 517.328125 1663.820312 515.53125 C 1621.160156 487.5 1586.441406 456.589844 1562.300781 418.738281 C 1538.011719 380.671875 1524.511719 335.808594 1524.511719 280.199219 L 1524.511719 187.28125 L 1524.539062 187.28125 C 1524.539062 183.089844 1527.839844 179.621094 1532.058594 179.460938 C 1557.910156 178.421875 1578.320312 175.851562 1598.671875 171.078125 C 1619.070312 166.28125 1639.441406 159.238281 1665.109375 149.238281 L 1665.300781 149.160156 L 1665.300781 149.171875 C 1667.050781 148.488281 1669.039062 148.441406 1670.929688 149.171875 C 1696.699219 159.199219 1717.109375 166.28125 1737.558594 171.078125 C 1757.730469 175.808594 1777.96875 178.371094 1803.511719 179.429688 L 1803.859375 179.429688 C 1808.199219 179.429688 1811.71875 182.949219 1811.71875 187.28125 L 1811.71875 280.199219 C 1811.71875 335.808594 1798.21875 380.671875 1773.929688 418.738281 "/>
</svg>
